<?xml version="1.0" encoding="UTF-8"?>
<svg id="Layer_1" data-name="Layer 1" xmlns="http://www.w3.org/2000/svg" viewBox="0 0 98.2 48.09">
  <defs>
    <style>
      .cls-1 {
        fill: #196dfd;
      }

      .cls-1, .cls-2, .cls-3, .cls-4, .cls-5 {
        stroke-width: 0px;
      }

      .cls-2 {
        fill: #4db2fd;
      }

      .cls-3 {
        fill: #6ad4fc;
      }

      .cls-4 {
        fill: #fff;
      }

      .cls-5 {
        fill: #034cfc;
      }
    </style>
  </defs>
  <g>
    <path class="cls-3" d="M14.79,7.57c.93-2.02.28-4.16.42-6.23.08-1.12,0-1.84,1.42-.9,4.65,3.09,9.35,6.11,14.06,9.11.95.61,1.22,1.34,1.22,2.43-.04,8.84-.04,17.69,0,26.53,0,1.18-.25,1.91-1.42,2.48-4.49,2.16-8.94,4.42-13.37,6.71-1.54.79-1.99.4-1.91-1.24.08-1.66.01-3.32,0-4.99,2.19-.93,4.41-1.79,6.55-2.81,1.37-.65,3.41-.56,3.4-2.95-.04-7.16-.02-14.33,0-21.49,0-1.22-.55-1.86-1.66-2.37-2.94-1.35-5.82-2.84-8.72-4.28Z"/>
    <path class="cls-2" d="M14.79,7.57c2.9,1.44,5.78,2.93,8.72,4.28,1.11.51,1.66,1.15,1.66,2.37-.02,7.16-.03,14.33,0,21.49.01,2.38-2.03,2.29-3.4,2.95-2.14,1.02-4.36,1.88-6.55,2.81-1.88.73-3.8,1.39-5.65,2.2-1.54.67-2.38.65-2.16-1.4.09-.85.31-1.81-.43-2.56.14-.08.27-.15.41-.23,2.1-.55,4.21-1.11,6.32-1.65,1.13-.29,1.54-.95,1.54-2.13-.04-7.47-.03-14.94-.02-22.41,0-.9-.17-1.63-1.19-1.91-2.17-.59-4.21-1.66-6.48-1.91-.47-.23-.94-.47-1.41-.7,1.62.17,1.28-.99,1.3-1.9.04-2.99.05-3,2.77-1.65,1.54.76,3.05,1.56,4.58,2.34Z"/>
    <path class="cls-5" d="M6.14,8.78c.47.23.94.47,1.41.7-.06,10-.11,20-.16,30-.14.08-.28.15-.41.23-1.82.51-3.65.96-5.44,1.55-1.27.42-1.54.03-1.54-1.21C.04,29.53.04,19.01,0,8.49c0-1.33.24-1.81,1.64-1.24,1.46.6,3,1.02,4.51,1.52Z"/>
    <path class="cls-1" d="M7.39,39.48c.05-10,.11-20,.16-30,2.28.25,4.31,1.32,6.49,1.91,1.02.28,1.19,1.01,1.19,1.91,0,7.47-.02,14.94.02,22.41,0,1.18-.41,1.84-1.54,2.13-2.11.53-4.21,1.1-6.32,1.65Z"/>
  </g>
  <g>
    <path class="cls-4" d="M46.82,27.47c-.91.19-1.69.28-2.33.28s-1.17-.07-1.56-.21c-.39-.14-.71-.33-.96-.58s-.44-.57-.58-.97c-.27-.73-.4-1.71-.4-2.96,0-2,.32-3.32.96-3.97.52-.54,1.32-.81,2.39-.81.73,0,1.57.09,2.49.28l-.04.72c-.92-.17-1.66-.25-2.22-.25s-.99.06-1.29.18c-.31.12-.55.28-.74.48-.19.2-.33.48-.43.83-.18.6-.27,1.35-.27,2.26s.03,1.58.09,2.02c.06.45.18.85.36,1.21.18.36.44.62.78.78s.82.24,1.43.24,1.37-.08,2.28-.25l.04.72Z"/>
    <path class="cls-4" d="M55.22,23.08c0,1.65-.26,2.83-.78,3.57-.52.73-1.46,1.1-2.83,1.1s-2.31-.38-2.83-1.13c-.52-.75-.78-1.94-.78-3.56s.26-2.83.78-3.61,1.46-1.18,2.81-1.18,2.29.39,2.82,1.17c.53.78.79,2,.79,3.64ZM49.42,26.08c.37.61,1.1.92,2.2.92s1.82-.3,2.2-.9.56-1.61.56-3.02-.19-2.44-.58-3.1c-.39-.65-1.11-.98-2.18-.98s-1.84.35-2.22,1.06c-.2.36-.34.78-.42,1.25s-.11,1.05-.11,1.74c0,1.41.19,2.42.56,3.03Z"/>
    <path class="cls-4" d="M57.15,27.61v-9.22h1.54l2.85,8.07,2.84-8.07h1.54v9.22h-.82v-8.37h-.19l-2.89,8.07h-.97l-2.89-8.07h-.19v8.37h-.82Z"/>
    <path class="cls-4" d="M71.6,24.4h-2.55v3.21h-.82v-9.22h3.37c.98,0,1.7.24,2.17.72s.7,1.21.7,2.2c0,2.06-.96,3.09-2.87,3.09ZM69.05,23.67h2.55c1.34,0,2.02-.79,2.02-2.36,0-.75-.16-1.3-.48-1.66-.32-.35-.83-.53-1.54-.53h-2.55v4.55Z"/>
    <path class="cls-4" d="M74.82,27.61l2.65-9.22h1.92l2.64,9.22h-.81l-.74-2.55h-4.11l-.73,2.55h-.82ZM78.08,19.11l-1.5,5.23h3.71l-1.5-5.23h-.72Z"/>
    <path class="cls-4" d="M83.53,27.61v-9.22h1.62l3.86,8.49h.3v-8.49h.81v9.22h-1.59l-3.89-8.48h-.29v8.48h-.82Z"/>
    <path class="cls-4" d="M95.24,27.61h-.82v-3.9l-2.96-5.32h.92l2.45,4.47,2.44-4.47h.93l-2.96,5.32v3.9Z"/>
  </g>
  <g>
    <path class="cls-4" d="M42.51,33.2h-1.2v1.77c0,.46.03.77.1.91.07.14.22.21.47.21l.66-.05.03.37c-.32.05-.56.07-.72.07-.36,0-.61-.09-.76-.27s-.21-.52-.21-1.03v-1.98h-.53v-.38h.53v-1.12h.43v1.12h1.2v.38Z"/>
    <path class="cls-4" d="M45.65,33.88v1.92c.02.18.17.28.47.32l-.02.34c-.37,0-.64-.1-.81-.29-.45.2-.9.29-1.35.29-.32,0-.56-.09-.73-.28-.17-.18-.25-.45-.25-.79s.08-.59.25-.76c.17-.17.44-.27.8-.3l1.22-.12v-.34c0-.27-.06-.46-.18-.58-.12-.12-.27-.18-.47-.18-.31,0-.7.03-1.19.09l-.22.02-.02-.34c.53-.1.99-.15,1.38-.15s.68.09.86.28c.18.19.27.47.27.86ZM43.4,35.38c0,.48.2.72.59.72.17,0,.36-.02.57-.06.21-.04.37-.08.49-.13l.18-.06v-1.3l-1.17.12c-.23.02-.4.09-.51.2-.1.11-.15.28-.15.5Z"/>
    <path class="cls-4" d="M49.66,36.94c0,.41-.13.7-.39.88-.26.18-.67.27-1.21.27s-.93-.08-1.14-.24c-.21-.16-.32-.45-.32-.87,0-.2.04-.36.13-.48.09-.12.24-.26.45-.42-.12-.08-.18-.24-.18-.49,0-.08.06-.23.17-.45l.06-.11c-.39-.16-.59-.52-.59-1.08,0-.81.43-1.22,1.3-1.22.24,0,.46.02.65.07l.11.02,1.04-.02v.38h-.72c.17.16.26.44.26.83s-.11.68-.33.86-.56.27-1.03.27c-.14,0-.26,0-.37-.03-.1.23-.14.38-.14.44,0,.16.05.25.14.29.09.04.37.05.83.06s.79.07.99.21c.19.14.29.41.29.81ZM47.03,36.97c0,.29.07.48.22.59.14.11.42.17.83.17s.7-.06.88-.18c.18-.12.27-.31.27-.59s-.06-.45-.19-.53c-.13-.08-.38-.12-.74-.12l-.81-.03c-.18.12-.3.23-.36.33s-.09.21-.09.36ZM47.08,33.96c0,.31.07.53.2.65.13.13.36.19.68.19s.54-.06.68-.19c.13-.12.2-.34.2-.66s-.07-.53-.2-.66c-.13-.13-.36-.19-.68-.19s-.54.07-.68.2-.2.35-.2.66Z"/>
    <path class="cls-4" d="M50.45,36.4v-5.17h.42v5.17h-.42Z"/>
    <path class="cls-4" d="M51.99,31.92v-.54h.42v.54h-.42ZM51.99,36.4v-3.58h.42v3.58h-.42Z"/>
    <path class="cls-4" d="M53.91,36.4h-.42v-3.58h.42v.27c.4-.22.79-.34,1.17-.34.48,0,.8.13.96.38.16.25.24.72.24,1.39v1.88h-.43v-1.86c0-.55-.05-.92-.16-1.11s-.33-.29-.67-.29c-.17,0-.34.02-.53.08-.18.05-.33.1-.43.15l-.15.07v2.97Z"/>
    <path class="cls-4" d="M59.68,36.04l.22-.02v.35c-.53.07-.98.1-1.35.1-.52,0-.88-.16-1.08-.46-.21-.3-.31-.76-.31-1.39,0-1.25.49-1.88,1.48-1.88.47,0,.83.14,1.06.41.23.27.35.7.35,1.29v.34h-2.45c0,.44.08.77.23.98.15.21.41.32.77.32s.73-.01,1.09-.04ZM57.59,34.43h2.02c0-.47-.08-.81-.23-1.01-.16-.2-.4-.3-.75-.3s-.6.1-.78.31c-.18.21-.27.54-.27,1Z"/>
    <path class="cls-4" d="M62.92,36.4h-.42v-5.17h.42v1.8c.4-.19.79-.28,1.16-.28.48,0,.8.13.96.38.16.25.24.72.24,1.39v1.88h-.43v-1.86c0-.55-.05-.92-.15-1.11-.1-.19-.33-.29-.67-.29-.17,0-.34.02-.53.06-.18.04-.33.08-.43.12l-.15.06v3.02Z"/>
    <path class="cls-4" d="M68.69,36.04l.22-.02v.35c-.53.07-.98.1-1.35.1-.52,0-.88-.16-1.08-.46-.21-.3-.31-.76-.31-1.39,0-1.25.49-1.88,1.48-1.88.47,0,.83.14,1.06.41.23.27.35.7.35,1.29v.34h-2.45c0,.44.08.77.23.98.15.21.41.32.77.32s.73-.01,1.09-.04ZM66.6,34.43h2.02c0-.47-.08-.81-.23-1.01-.16-.2-.4-.3-.75-.3s-.6.1-.78.31c-.18.21-.27.54-.27,1Z"/>
    <path class="cls-4" d="M69.93,36.4v-3.58h.42v.52c.18-.12.39-.24.65-.36.26-.11.49-.19.71-.23v.43c-.21.04-.42.11-.65.2-.22.09-.4.17-.52.23l-.19.11v2.69h-.42Z"/>
    <path class="cls-4" d="M74.63,36.04l.22-.02v.35c-.53.07-.98.1-1.35.1-.52,0-.88-.16-1.08-.46-.21-.3-.31-.76-.31-1.39,0-1.25.49-1.88,1.48-1.88.47,0,.83.14,1.06.41.23.27.35.7.35,1.29v.34h-2.45c0,.44.08.77.23.98.15.21.41.32.77.32s.73-.01,1.09-.04ZM72.54,34.43h2.02c0-.47-.08-.81-.23-1.01-.16-.2-.4-.3-.75-.3s-.6.1-.78.31c-.18.21-.27.54-.27,1Z"/>
  </g>
</svg>