<?xml version="1.0" encoding="UTF-8" standalone="no"?>
<!-- Created with Inkscape (http://www.inkscape.org/) -->

<svg
   width="189.21028mm"
   height="179.11758mm"
   viewBox="0 0 189.21029 179.11759"
   version="1.1"
   id="svg1"
   xmlns="http://www.w3.org/2000/svg"
   xmlns:svg="http://www.w3.org/2000/svg">
  <defs
     id="defs1" />
  <g
     id="layer1"
     transform="translate(-0.06591405,-0.79022895)">
    <g
       id="g522"
       transform="matrix(0.26458333,0,0,0.26458333,-191.06909,0.01310714)">
      <rect
         class="cls-139"
         x="722.40002"
         y="1.4"
         width="715.09998"
         height="678.70001"
         id="rect129"
         style="fill:#0b2063" />
      <g
         id="g521">
        <g
           id="g150">
          <circle
             class="cls-3"
             cx="1023.2"
             cy="234.3"
             r="6.8000002"
             id="circle129"
             style="fill:#2a44dd;stroke:#ffffff;stroke-width:0.5px;stroke-miterlimit:10" />
          <path
             class="cls-134"
             d="m 1029.4,30.9 c 1.9,0 1.9,-3 0,-3 -1.9,0 -1.9,3 0,3 z"
             id="path130"
             style="fill:#ffffff" />
          <path
             class="cls-134"
             d="m 1031.5,47.9 c 1,0 1,-1.5 0,-1.5 -1,0 -1,1.5 0,1.5 z"
             id="path131"
             style="fill:#ffffff" />
          <path
             class="cls-134"
             d="m 1057.7,92.8 c 1,0 1,-1.5 0,-1.5 -1,0 -1,1.5 0,1.5 z"
             id="path132"
             style="fill:#ffffff" />
          <path
             class="cls-134"
             d="m 1026.3,159.8 c 1,0 1,-1.5 0,-1.5 -1,0 -1,1.5 0,1.5 z"
             id="path133"
             style="fill:#ffffff" />
          <path
             class="cls-134"
             d="m 1009.2,652 c 1,0 1,-1.5 0,-1.5 -1,0 -1,1.5 0,1.5 z"
             id="path134"
             style="fill:#ffffff" />
          <path
             class="cls-134"
             d="m 1016.9,535.9 c 1.9,0 1.9,-3 0,-3 -1.9,0 -1.9,3 0,3 z"
             id="path135"
             style="fill:#ffffff" />
          <path
             class="cls-146"
             d="m 972.4,447.2 c 2.2,4.3 5.2,8.4 8.1,12.3 8.2,11.2 20.1,16 33.2,18.4 12.1,2.1 24.1,0.3 34.6,-4.9 13.6,-6.7 22.2,-18.4 23.9,-34.3 1.4,-12.3 -1.4,-24.2 -2.9,-36.2 -1.4,-11.1 -2.2,-22.4 -3.4,-33.5 -0.1,-1.3 -0.4,-2.6 -0.6,-3.9 -0.2,0 -0.4,0 -0.6,0 -6.3,18.1 -12.6,36.2 -18.9,54.6 2.4,-1.2 5.3,-2.5 8,-4 2.3,-1.3 3.5,-0.4 3.6,1.7 0.4,6.7 1.2,13.6 0.5,20.2 -1.5,13.7 -9.8,22 -23,25 -14.3,3.2 -27.9,1.7 -39.5,-8.5 -8.9,-7.8 -14.1,-18 -17.5,-29.1 -4.4,-14.1 -3.5,-28.5 -0.9,-42.6 5.6,-30.5 10.1,-61.1 13.4,-91.9 1,-9.7 2.1,-19.4 3.3,-29 0.2,-1.5 0.7,-3.3 1.6,-4.4 5.5,-6.7 6,-14.7 5.7,-22.8 0,-1.5 -0.2,-3 -0.5,-4.4 -0.4,-2 -0.8,-4.1 -1.5,-6 -1.7,-4.6 -5.7,-8.2 -8.7,-7.7 -4.8,0.7 -8.9,5.3 -9.1,10.7 -0.2,3.1 -0.3,6.2 0,9.3 2.1,22.3 -0.5,44.3 -3.9,66.1 -4.2,26.5 -9.3,52.8 -13.6,79.3 -3.7,22.7 -2,44.9 8.8,65.7 z m 17.3,-210.3 c 0,-5.8 0.9,-10.6 2.1,-10.6 1.2,0 2.1,4.7 2.1,10.6 0,5.8 -0.9,10.6 -2.1,10.6 -1.2,0 -2.1,-4.7 -2.1,-10.6 z"
             id="path136"
             style="fill:#bac4e2" />
          <line
             class="cls-63"
             x1="990.70001"
             y1="217.5"
             x2="990.70001"
             y2="0.60000002"
             id="line136"
             style="fill:none;stroke:#bac4e2;stroke-width:3px;stroke-miterlimit:10" />
          <g
             id="g147">
            <polygon
               class="cls-70"
               points="1343.5,577.8 1437.7,627 1437.7,15 1255.3,244.9 "
               id="polygon136"
               style="fill:#4865e0;stroke:#ffffff;stroke-width:0.5px;stroke-miterlimit:10;stroke-dasharray:3" />
            <path
               class="cls-70"
               d="m 1129.1,235.4 113.3,155.2 -79.5,-57.9 -49.3,-16.4 0.4,18.6 -21.6,-38 c 0,0 -7.3,-30.3 2.2,-42.8 9.5,-12.5 21.6,-19.5 34.6,-18.6 z"
               id="path137"
               style="fill:#4865e0;stroke:#ffffff;stroke-width:0.5px;stroke-miterlimit:10;stroke-dasharray:3" />
            <path
               class="cls-70"
               d="m 1242.4,390.6 1.7,44.1 -45,80 -69.6,85.6 c 0,0 -18.6,5.6 -29.8,-9.9 -11.2,-15.6 -15.1,-28.5 -10.8,-41.9 4.3,-13.4 23.8,-29.4 23.8,-29.4 0,0 36.7,-13.8 56.6,-23.8 19.9,-9.9 51,-33.3 55.3,-40.2 4.3,-6.9 16,-19.5 15.4,-38.8 -0.6,-19.3 -11.2,-35.7 -11.2,-35.7 l 13.5,10.1 z"
               id="path138"
               style="fill:#4865e0;stroke:#ffffff;stroke-width:0.5px;stroke-miterlimit:10;stroke-dasharray:3" />
            <path
               class="cls-81"
               d="m 1193.1,166.3 0.4,-37.8 -52.3,-34.1 -55.3,-3.9 c 0,0 -10.8,17.5 -6.9,35.9 3.9,18.4 13.6,29.2 13.6,29.2 l 19.5,-11.7 23.8,-11 c 0,0 9.5,-3.2 15.1,-1.1 5.6,2.2 9.8,4.8 13.5,7.6 3.7,2.8 15.2,13 15.2,13 z"
               id="path139"
               style="fill:#6887ea;stroke:#ffffff;stroke-width:0.5px;stroke-miterlimit:10;stroke-dasharray:3" />
            <path
               class="cls-82"
               d="m 1186.8,160 -52.5,5.6 c 0,0 -12.1,-10.9 -12.3,-11.3 -0.2,-0.4 0.8,-12.9 0.8,-12.9 l 3.5,-4.2 8.8,-4 8.4,-2.3 c 0,0 6.3,-0.5 9,1.1 2.7,1.6 14,8.4 17.8,11.9 3.8,3.5 16.6,16.1 16.6,16.1 z"
               id="path140"
               style="fill:#163687;stroke:#ffffff;stroke-width:0.5px;stroke-miterlimit:10;stroke-dasharray:3" />
            <polygon
               class="cls-70"
               points="1132.1,76.8 1172.8,25.3 1210.4,2.9 1170.2,3.3 1123.2,48.1 1087.9,85.7 1085.9,90.4 1141.2,94.3 1193.5,128.4 1171.7,87.4 "
               id="polygon140"
               style="fill:#4865e0;stroke:#ffffff;stroke-width:0.5px;stroke-miterlimit:10;stroke-dasharray:3" />
            <path
               class="cls-82"
               d="m 1193.1,166.3 13.6,14 20.4,-11.3 c 0,0 11.3,-31.4 11.3,-32.4 0,-1 -7.5,-32.4 -7.5,-32.4 l -36.3,-22.7 -23,5.9 21.8,41.1 -0.4,37.8 z"
               id="path141"
               style="fill:#163687;stroke:#ffffff;stroke-width:0.5px;stroke-miterlimit:10;stroke-dasharray:3" />
            <path
               class="cls-82"
               d="m 1230.9,103.8 -31.3,-43.4 -67.4,16.4 39.6,10.6 23,-5.9 c 0,0 35.6,22.7 36.2,22.4 z"
               id="path142"
               style="fill:#163687;stroke:#ffffff;stroke-width:0.5px;stroke-miterlimit:10;stroke-dasharray:3" />
            <polygon
               class="cls-5"
               points="1437.5,680.2 1437.7,627 1343.5,577.8 1230,678.9 "
               id="polygon142"
               style="fill:#2a44dd;stroke:#ffffff;stroke-width:0.5px;stroke-miterlimit:10;stroke-dasharray:3" />
            <polygon
               class="cls-81"
               points="1343.5,577.8 1297.5,400.8 1244.3,412.4 1244.1,434.7 1199.1,514.7 1129.5,600.2 1147.7,630.3 1141.9,678.9 1230,678.9 "
               id="polygon143"
               style="fill:#6887ea;stroke:#ffffff;stroke-width:0.5px;stroke-miterlimit:10;stroke-dasharray:3" />
            <polygon
               class="cls-5"
               points="1210.4,2.9 1172.8,25.3 1132.1,76.8 1199.6,60.4 1291.6,3 "
               id="polygon144"
               style="fill:#2a44dd;stroke:#ffffff;stroke-width:0.5px;stroke-miterlimit:10;stroke-dasharray:3" />
            <polygon
               class="cls-81"
               points="1238.5,136.5 1227.1,169 1206.7,180.3 1186.8,160 1155.8,163.1 1148.3,190 1142.2,215.6 1129.1,235.4 1242.4,390.6 1244.3,412.4 1297.5,400.8 1255.3,244.9 1437.7,15 1438.5,3.3 1291.6,3 1199.6,60.4 1230.9,103.8 "
               id="polygon145"
               style="fill:#6887ea;stroke:#ffffff;stroke-width:0.5px;stroke-miterlimit:10;stroke-dasharray:3" />
            <polygon
               class="cls-82"
               points="1192.6,481.2 1223.5,456.7 1238,431.8 1240.3,415.4 1236.3,397.1 1229.2,381.1 1162.8,332.7 1113.5,316.3 1114,334.8 1160.2,396.2 1170.6,422.6 1173.2,458.9 1170.2,479.2 1117.4,516.4 1164.5,496.9 "
               id="polygon146"
               style="fill:#163687;stroke:#ffffff;stroke-width:0.5px;stroke-miterlimit:10;stroke-dasharray:3" />
            <path
               class="cls-65"
               d="m 1179.5,344.6 -16.6,-11.9 -32.6,-10.8 c 0,0 -2.3,13.5 -2.4,22.2 -0.1,8.6 4.4,11.6 4.4,11.6 l 15.7,6.2 31.6,-17.2 z"
               id="path146"
               style="fill:#bac4e2;stroke:#ffffff;stroke-width:0.5px;stroke-miterlimit:10;stroke-dasharray:3" />
            <polygon
               class="cls-5"
               points="1122,154.3 1134.3,165.6 1155.8,163.1 1148.7,188.5 1145.5,185.4 1119.6,174.5 1102,163.8 1092.6,155.5 1125.6,137.2 1122.7,141.4 "
               id="polygon147"
               style="fill:#2a44dd;stroke:#ffffff;stroke-width:0.5px;stroke-miterlimit:10;stroke-dasharray:3" />
          </g>
          <polygon
             class="cls-70"
             points="1255.3,244.9 1437.7,15 1437.8,430.9 "
             id="polygon148"
             style="fill:#4865e0;stroke:#ffffff;stroke-width:0.5px;stroke-miterlimit:10;stroke-dasharray:3" />
          <polygon
             class="cls-81"
             points="1129.1,235.4 1142.2,215.6 1155.8,163.1 1186.8,160 1231.3,374.4 "
             id="polygon149"
             style="fill:#6887ea;stroke:#ffffff;stroke-width:0.5px;stroke-miterlimit:10;stroke-dasharray:3" />
          <polygon
             class="cls-70"
             points="1230,678.9 1141.9,678.9 1147.7,630.3 1343.5,577.8 "
             id="polygon150"
             style="fill:#4865e0;stroke:#ffffff;stroke-width:0.5px;stroke-miterlimit:10;stroke-dasharray:3" />
        </g>
        <circle
           class="cls-3"
           cx="780.5"
           cy="546.79999"
           r="15.9"
           id="circle150"
           style="fill:#2a44dd;stroke:#ffffff;stroke-width:0.5px;stroke-miterlimit:10" />
        <circle
           class="cls-94"
           cx="811.5"
           cy="73.599998"
           r="15.9"
           id="circle151"
           style="fill:#4865e0;stroke:#ffffff;stroke-width:0.5px;stroke-miterlimit:10;stroke-dasharray:5" />
        <circle
           class="cls-3"
           cx="780.59998"
           cy="183"
           r="6.5999999"
           id="circle152"
           style="fill:#2a44dd;stroke:#ffffff;stroke-width:0.5px;stroke-miterlimit:10" />
        <g
           id="g153">
          <polygon
             class="cls-4"
             points="944.4,127.1 932.2,120.4 920,127 932.3,133.7 "
             id="polygon152"
             style="fill:#2a44dd;stroke:#2a44dd;stroke-miterlimit:10;stroke-dasharray:2" />
          <polygon
             class="cls-4"
             points="953.8,132.6 953.8,121.7 944.4,127.2 "
             id="polygon153"
             style="fill:#2a44dd;stroke:#2a44dd;stroke-miterlimit:10;stroke-dasharray:2" />
        </g>
        <g
           id="g155">
          <polygon
             class="cls-129"
             points="869.5,617 881.7,623.7 893.9,617.1 881.6,610.4 "
             id="polygon154"
             style="fill:#4865e0" />
          <polygon
             class="cls-129"
             points="860.1,611.5 860.1,622.4 869.6,616.9 "
             id="polygon155"
             style="fill:#4865e0" />
        </g>
        <path
           class="cls-134"
           d="m 796.2,488 c 1.9,0 1.9,-3 0,-3 -1.9,0 -1.9,3 0,3 z"
           id="path155"
           style="fill:#ffffff" />
        <path
           class="cls-134"
           d="m 960.7,548.3 c 1.9,0 1.9,-3 0,-3 -1.9,0 -1.9,3 0,3 z"
           id="path156"
           style="fill:#ffffff" />
        <path
           class="cls-134"
           d="m 944.4,42.3 c 1,0 1,-1.5 0,-1.5 -1,0 -1,1.5 0,1.5 z"
           id="path157"
           style="fill:#ffffff" />
        <path
           class="cls-134"
           d="m 877.6,147.6 c 1,0 1,-1.5 0,-1.5 -1,0 -1,1.5 0,1.5 z"
           id="path158"
           style="fill:#ffffff" />
        <path
           class="cls-134"
           d="m 929.2,172.9 c 1,0 1,-1.5 0,-1.5 -1,0 -1,1.5 0,1.5 z"
           id="path159"
           style="fill:#ffffff" />
        <path
           class="cls-134"
           d="m 972.8,550.6 c 1,0 1,-1.5 0,-1.5 -1,0 -1,1.5 0,1.5 z"
           id="path160"
           style="fill:#ffffff" />
        <path
           class="cls-134"
           d="m 974.8,613.3 c 1,0 1,-1.5 0,-1.5 -1,0 -1,1.5 0,1.5 z"
           id="path161"
           style="fill:#ffffff" />
        <path
           class="cls-134"
           d="m 768.4,493.9 c 1,0 1,-1.5 0,-1.5 -1,0 -1,1.5 0,1.5 z"
           id="path162"
           style="fill:#ffffff" />
        <path
           class="cls-134"
           d="m 785.6,618.4 c 1,0 1,-1.5 0,-1.5 -1,0 -1,1.5 0,1.5 z"
           id="path163"
           style="fill:#ffffff" />
        <path
           class="cls-134"
           d="m 846,510.4 c 1,0 1,-1.5 0,-1.5 -1,0 -1,1.5 0,1.5 z"
           id="path164"
           style="fill:#ffffff" />
        <path
           class="cls-134"
           d="m 912,35 c 1.9,0 1.9,-3 0,-3 -1.9,0 -1.9,3 0,3 z"
           id="path165"
           style="fill:#ffffff" />
        <path
           class="cls-134"
           d="m 759.2,587.7 c 1.9,0 1.9,-3 0,-3 -1.9,0 -1.9,3 0,3 z"
           id="path166"
           style="fill:#ffffff" />
        <g
           id="g167">
          <circle
             class="cls-1"
             cx="789.70001"
             cy="310"
             r="14.3"
             id="circle166"
             style="fill:#2a44dd" />
          <circle
             class="cls-36"
             cx="789.70001"
             cy="310"
             r="14.3"
             transform="rotate(-22.5,789.7036,309.94968)"
             id="circle167"
             style="fill:none;stroke:#ffffff;stroke-width:0.5px;stroke-miterlimit:10;stroke-dasharray:4.1, 4.1" />
        </g>
        <circle
           class="cls-3"
           cx="847.29999"
           cy="390.5"
           r="5.0999999"
           id="circle168"
           style="fill:#2a44dd;stroke:#ffffff;stroke-width:0.5px;stroke-miterlimit:10" />
        <path
           class="cls-134"
           d="m 859.5,299.8 c 1.9,0 1.9,-3 0,-3 -1.9,0 -1.9,3 0,3 z"
           id="path168"
           style="fill:#ffffff" />
        <path
           class="cls-134"
           d="m 869.6,307.6 c 1,0 1,-1.5 0,-1.5 -1,0 -1,1.5 0,1.5 z"
           id="path169"
           style="fill:#ffffff" />
        <path
           class="cls-134"
           d="m 907.1,354.5 c 1,0 1,-1.5 0,-1.5 -1,0 -1,1.5 0,1.5 z"
           id="path170"
           style="fill:#ffffff" />
        <path
           class="cls-134"
           d="m 852.4,330.3 c 1.9,0 1.9,-3 0,-3 -1.9,0 -1.9,3 0,3 z"
           id="path171"
           style="fill:#ffffff" />
      </g>
    </g>
  </g>
</svg>
