<?xml version="1.0" encoding="UTF-8"?>
<svg id="Layer_1" data-name="Layer 1" xmlns="http://www.w3.org/2000/svg" viewBox="0 0 14.2 14.2">
  <defs>
    <style>
      .cls-1 {
        fill: #666;
        stroke-width: 0px;
      }
    </style>
  </defs>
  <path class="cls-1" d="M8.61,1.47c-1.97-1.97-5.16-1.97-7.13,0s-1.97,5.16,0,7.13c1.78,1.78,4.56,1.94,6.53.51l4.86,4.86c.31.31.8.31,1.1,0s.31-.8,0-1.1l-4.86-4.86c1.44-1.97,1.27-4.75-.51-6.53ZM7.5,7.5c-1.36,1.36-3.56,1.36-4.92,0-1.36-1.36-1.36-3.56,0-4.92,1.36-1.36,3.56-1.36,4.92,0s1.36,3.56,0,4.92Z"/>
</svg>